<svg width="37" height="106" viewBox="0 0 37 106" fill="none" xmlns="http://www.w3.org/2000/svg">
<circle cx="21.2329" cy="90.9807" r="15.0193" fill="#1B1B1B"/>
<path d="M11.5495 0.709921C10.6648 0.375812 9.73137 0.137352 8.77234 0.000487423C8.76366 -0.000716819 8.75473 0.000323244 8.74679 0.00346464C8.73885 0.00660604 8.73229 0.0116945 8.72801 0.0180303C8.60778 0.193459 8.47477 0.42292 8.38182 0.602559C7.34806 0.473449 6.29654 0.473449 5.26278 0.602559C5.15911 0.402443 5.04182 0.207292 4.91148 0.0180303C4.90711 0.0117639 4.90053 0.00673405 4.89262 0.00360275C4.88471 0.000471447 4.87582 -0.000614604 4.86715 0.000487423C3.9079 0.13662 2.97423 0.375203 2.09002 0.709921C2.08246 0.712297 2.07613 0.716762 2.07212 0.722552C0.303692 2.89717 -0.181473 5.01845 0.0564198 7.11307C0.0572725 7.12289 0.0649464 7.13272 0.0743257 7.13903C1.10411 7.7668 2.25594 8.2461 3.48072 8.55649C3.48936 8.55874 3.49866 8.55866 3.50724 8.55626C3.51583 8.55386 3.52326 8.54927 3.52846 8.54316C3.79109 8.24844 4.02472 7.93758 4.22594 7.61058C4.23014 7.60385 4.23157 7.59618 4.23004 7.58872C4.2285 7.58126 4.22407 7.5744 4.21742 7.56918C4.21301 7.56576 4.20778 7.56313 4.20207 7.56146C3.83471 7.44527 3.47892 7.30568 3.13795 7.14394C3.12842 7.1395 3.12134 7.13221 3.11816 7.12359C3.11499 7.11497 3.11597 7.10567 3.12089 7.09763C3.12379 7.09241 3.12818 7.08783 3.13368 7.0843C3.20531 7.04009 3.27693 6.99378 3.34514 6.94746C3.35117 6.94348 3.3584 6.94091 3.36606 6.94005C3.37372 6.93918 3.38152 6.94005 3.38863 6.94255C5.62175 7.7818 8.03905 7.7818 10.2449 6.94255C10.2523 6.93993 10.2604 6.939 10.2683 6.93986C10.2763 6.94073 10.2838 6.94335 10.2901 6.94746C10.3583 6.99378 10.4299 7.04009 10.5015 7.0843C10.5073 7.08779 10.512 7.09241 10.5151 7.09774C10.5182 7.10308 10.5197 7.10896 10.5193 7.11487C10.519 7.12078 10.5169 7.12653 10.5132 7.1316C10.5095 7.13668 10.5043 7.14092 10.4981 7.14394C10.1579 7.30716 9.80169 7.44659 9.43316 7.56076C9.42728 7.56251 9.42194 7.56531 9.41752 7.56894C9.4131 7.57258 9.40971 7.57697 9.40758 7.58181C9.40561 7.5865 9.40482 7.59147 9.40526 7.59641C9.4057 7.60136 9.40736 7.60618 9.41014 7.61058C9.61478 7.93688 9.84926 8.24844 10.1068 8.54316C10.112 8.54927 10.1194 8.55386 10.128 8.55626C10.1366 8.55866 10.1459 8.55874 10.1545 8.55649C11.3813 8.24706 12.535 7.7677 13.566 7.13903C13.5712 7.13609 13.5755 7.13223 13.5786 7.12773C13.5817 7.12324 13.5835 7.11822 13.5839 7.11307C13.8687 4.69145 13.1073 2.58771 11.5665 0.723254C11.565 0.720174 11.5626 0.717396 11.5597 0.7151C11.5568 0.712804 11.5533 0.711039 11.5495 0.709921ZM4.55933 5.83735C3.88658 5.83735 3.3332 5.32931 3.3332 4.70619C3.3332 4.08236 3.87635 3.57432 4.55933 3.57432C5.24743 3.57432 5.7957 4.08657 5.78546 4.70619C5.78546 5.32931 5.24232 5.83735 4.55933 5.83735ZM9.09209 5.83735C8.42019 5.83735 7.86596 5.32931 7.86596 4.70619C7.86596 4.08236 8.40911 3.57432 9.09209 3.57432C9.78019 3.57432 10.3293 4.08657 10.3182 4.70619C10.3182 5.32931 9.78019 5.83735 9.09209 5.83735Z" fill="white"/>
</svg>
