<svg width="27" height="25" viewBox="0 0 27 25" fill="none" xmlns="http://www.w3.org/2000/svg">
<path d="M24.4952 2.62177C23.8599 1.94911 23.1056 1.4155 22.2754 1.05144C21.4451 0.687383 20.5553 0.5 19.6566 0.5C18.758 0.5 17.8681 0.687383 17.0379 1.05144C16.2077 1.4155 15.4534 1.94911 14.8181 2.62177L13.4997 4.01714L12.1812 2.62177C10.898 1.26368 9.15749 0.500704 7.34269 0.500704C5.5279 0.500704 3.78743 1.26368 2.50418 2.62177C1.22092 3.97987 0.5 5.82185 0.5 7.74249C0.5 9.66313 1.22092 11.5051 2.50418 12.8632L3.82264 14.2586L13.4997 24.5L23.1767 14.2586L24.4952 12.8632C25.1307 12.1909 25.6349 11.3926 25.9789 10.5139C26.3229 9.63531 26.5 8.69356 26.5 7.74249C26.5 6.79142 26.3229 5.84967 25.9789 4.97104C25.6349 4.09241 25.1307 3.29412 24.4952 2.62177V2.62177Z" stroke="#747268" stroke-linecap="round" stroke-linejoin="round"/>
</svg>
