<svg width="32" height="109" viewBox="0 0 32 109" fill="none" xmlns="http://www.w3.org/2000/svg">
<circle cx="16.3424" cy="93.9209" r="15.0791" fill="white"/>
<path fill-rule="evenodd" clip-rule="evenodd" d="M4.02509 0.038665C4.75539 0.00702999 4.98824 0 6.84856 0C8.70888 0 8.94173 0.00761582 9.67141 0.038665C10.4011 0.0697142 10.8992 0.179265 11.335 0.338026C11.7914 0.500302 12.2054 0.753967 12.5478 1.08203C12.8965 1.40366 13.1654 1.79265 13.3373 2.22265C13.5066 2.63274 13.6224 3.1014 13.656 3.78683C13.6896 4.47518 13.6971 4.69428 13.6971 6.44417C13.6971 8.19464 13.689 8.41374 13.656 9.10092C13.623 9.78635 13.5066 10.255 13.3373 10.6651C13.1654 11.0952 12.896 11.4848 12.5478 11.8069C12.2054 12.135 11.7914 12.388 11.335 12.5497C10.8992 12.7091 10.4011 12.818 9.67266 12.8497C8.94173 12.8813 8.70888 12.8883 6.84856 12.8883C4.98824 12.8883 4.75539 12.8807 4.02509 12.8497C3.29665 12.8186 2.79857 12.7091 2.36275 12.5497C1.90572 12.388 1.49163 12.1345 1.14931 11.8069C0.800896 11.4851 0.531271 11.0956 0.359238 10.6657C0.190515 10.2556 0.0747116 9.78693 0.0410914 9.10151C0.00747115 8.41315 0 8.19405 0 6.44417C0 4.6937 0.00809374 4.4746 0.0410914 3.788C0.074089 3.1014 0.190515 2.63274 0.359238 2.22265C0.531525 1.7927 0.801355 1.40325 1.14994 1.08145C1.49177 0.753675 1.90544 0.499976 2.36213 0.338026C2.79795 0.179265 3.29603 0.0703 4.02446 0.038665H4.02509ZM9.616 1.19862C8.89379 1.16757 8.67713 1.16112 6.84856 1.16112C5.01999 1.16112 4.80333 1.16757 4.08112 1.19862C3.41307 1.22732 3.05072 1.33218 2.80915 1.42065C2.48976 1.53781 2.26127 1.67666 2.02157 1.9022C1.79435 2.1102 1.61949 2.36342 1.5098 2.64328C1.41578 2.87058 1.30434 3.21154 1.27383 3.84014C1.24083 4.5197 1.23399 4.72357 1.23399 6.44417C1.23399 8.16476 1.24083 8.36863 1.27383 9.0482C1.30434 9.6768 1.41578 10.0178 1.5098 10.2451C1.61937 10.5245 1.79432 10.7782 2.02157 10.9861C2.24259 11.2 2.51218 11.3646 2.80915 11.4677C3.05072 11.5561 3.41307 11.661 4.08112 11.6897C4.80333 11.7208 5.01937 11.7272 6.84856 11.7272C8.67775 11.7272 8.89379 11.7208 9.616 11.6897C10.284 11.661 10.6464 11.5561 10.888 11.4677C11.2074 11.3505 11.4359 11.2117 11.6756 10.9861C11.9028 10.7782 12.0777 10.5245 12.1873 10.2451C12.2813 10.0178 12.3928 9.6768 12.4233 9.0482C12.4563 8.36863 12.4631 8.16476 12.4631 6.44417C12.4631 4.72357 12.4563 4.5197 12.4233 3.84014C12.3928 3.21154 12.2813 2.87058 12.1873 2.64328C12.0628 2.34275 11.9152 2.12775 11.6756 1.9022C11.4545 1.68841 11.1854 1.52388 10.888 1.42065C10.6464 1.33218 10.284 1.22732 9.616 1.19862ZM5.97381 8.43073C6.46234 8.62208 7.00631 8.64791 7.51283 8.50379C8.01934 8.35968 8.45697 8.05457 8.75097 7.64058C9.04497 7.22659 9.17711 6.72939 9.1248 6.23391C9.0725 5.73844 8.839 5.27541 8.4642 4.92393C8.22527 4.69925 7.93637 4.52721 7.6183 4.4202C7.30023 4.31319 6.96089 4.27387 6.62473 4.30506C6.28857 4.33626 5.96395 4.43721 5.67422 4.60063C5.3845 4.76405 5.13688 4.98588 4.94921 5.25015C4.76153 5.51442 4.63846 5.81457 4.58886 6.12897C4.53925 6.44337 4.56435 6.7642 4.66234 7.06838C4.76033 7.37256 4.92877 7.65251 5.15555 7.88808C5.38232 8.12365 5.66178 8.30898 5.97381 8.43073ZM4.35942 4.10201C4.6863 3.79443 5.07436 3.55044 5.50145 3.38399C5.92853 3.21753 6.38628 3.13185 6.84856 3.13185C7.31084 3.13185 7.76859 3.21753 8.19567 3.38399C8.62276 3.55044 9.01082 3.79443 9.3377 4.10201C9.66458 4.40958 9.92387 4.77473 10.1008 5.1766C10.2777 5.57847 10.3687 6.00919 10.3687 6.44417C10.3687 6.87915 10.2777 7.30987 10.1008 7.71174C9.92387 8.1136 9.66458 8.47875 9.3377 8.78633C8.67754 9.40751 7.78217 9.75648 6.84856 9.75648C5.91495 9.75648 5.01958 9.40751 4.35942 8.78633C3.69926 8.16515 3.32838 7.32265 3.32838 6.44417C3.32838 5.56569 3.69926 4.72318 4.35942 4.10201ZM11.1495 3.62514C11.2305 3.55324 11.2953 3.46677 11.3402 3.37087C11.385 3.27496 11.409 3.17157 11.4106 3.0668C11.4122 2.96203 11.3915 2.85802 11.3496 2.76092C11.3077 2.66383 11.2456 2.57562 11.1669 2.50153C11.0881 2.42744 10.9944 2.36897 10.8912 2.32958C10.788 2.29019 10.6775 2.27068 10.5661 2.2722C10.4548 2.27373 10.3449 2.29626 10.243 2.33847C10.141 2.38067 10.0492 2.44169 9.97275 2.51791C9.82414 2.66614 9.74278 2.86304 9.74594 3.0668C9.7491 3.27055 9.83652 3.46513 9.98966 3.60923C10.1428 3.75332 10.3496 3.83558 10.5661 3.83856C10.7827 3.84153 10.9919 3.76497 11.1495 3.62514Z" fill="black"/>
</svg>
