<svg width="37" height="25" viewBox="0 0 37 25" fill="none" xmlns="http://www.w3.org/2000/svg">
<path d="M0.999716 19.4982H0V24.34H0.999716V19.4982Z" fill="#747268"/>
<path d="M36.994 19.4982H35.9943V24.34H36.994V19.4982Z" fill="#747268"/>
<path d="M36.4994 16.7886H0.500601C0.367831 16.7886 0.240503 16.7358 0.14662 16.642C0.052737 16.5481 0 16.4207 0 16.288V12.657C0.000798007 12.0222 0.253329 11.4136 0.702211 10.9647C1.15109 10.5158 1.75967 10.2633 2.39449 10.2625H34.5995C35.2343 10.2633 35.8429 10.5158 36.2918 10.9647C36.7407 11.4136 36.9932 12.0222 36.994 12.657V16.288C36.994 16.4197 36.9421 16.5461 36.8495 16.6398C36.7569 16.7336 36.6311 16.787 36.4994 16.7886ZM1.00575 15.7889H35.9988V12.6585C35.998 12.289 35.8508 11.9348 35.5893 11.6737C35.3279 11.4125 34.9736 11.2657 34.604 11.2653H2.39449C2.02509 11.2657 1.67094 11.4125 1.40974 11.6737C1.14853 11.935 1.00161 12.2891 1.00121 12.6585L1.00575 15.7889Z" fill="#747268"/>
<path d="M33.3359 11.2622H3.65657C3.52406 11.2619 3.39711 11.2089 3.30356 11.1151C3.21 11.0212 3.15747 10.8941 3.15747 10.7616V2.39447C3.15826 1.75965 3.4108 1.15109 3.85968 0.702211C4.30856 0.253329 4.91714 0.000798007 5.55195 0H31.4481C32.0829 0.000798007 32.6915 0.253329 33.1404 0.702211C33.5892 1.15109 33.8418 1.75965 33.8426 2.39447V10.7616C33.8426 10.8279 33.8294 10.8935 33.8039 10.9546C33.7784 11.0158 33.7409 11.0712 33.6938 11.1178C33.6467 11.1643 33.5908 11.2011 33.5293 11.2259C33.4679 11.2507 33.4021 11.263 33.3359 11.2622ZM4.15568 10.2625H32.8353V2.39598C32.8349 2.02659 32.688 1.67243 32.4268 1.41123C32.1656 1.15003 31.8114 1.0031 31.442 1.0027H5.55195C5.18256 1.0031 4.82842 1.15003 4.56721 1.41123C4.30601 1.67243 4.15909 2.02659 4.15869 2.39598L4.15568 10.2625Z" fill="#747268"/>
<path d="M16.3905 11.2624H6.50039C6.36788 11.262 6.24093 11.209 6.14737 11.1152C6.05382 11.0214 6.00128 10.8943 6.00128 10.7617V6.33312C6.00128 5.93321 6.16015 5.5497 6.44293 5.26692C6.72571 4.98414 7.10924 4.82526 7.50915 4.82526H15.3938C15.7937 4.82526 16.1772 4.98414 16.46 5.26692C16.7428 5.5497 16.9017 5.93321 16.9017 6.33312V10.7617C16.9017 10.8284 16.8884 10.8944 16.8626 10.9558C16.8368 11.0172 16.7989 11.0729 16.7513 11.1195C16.7037 11.1662 16.6473 11.2028 16.5853 11.2273C16.5233 11.2519 16.4571 11.2638 16.3905 11.2624ZM6.9995 10.2611H15.8959V6.33312C15.8955 6.20007 15.8425 6.0726 15.7484 5.97852C15.6543 5.88444 15.5268 5.83144 15.3938 5.83104H7.50915C7.3761 5.83144 7.24862 5.88444 7.15454 5.97852C7.06046 6.0726 7.00743 6.20007 7.00703 6.33312L6.9995 10.2611Z" fill="#747268"/>
<path d="M30.4981 11.2624H20.608C20.4753 11.2624 20.3479 11.2096 20.254 11.1157C20.1602 11.0218 20.1074 10.8945 20.1074 10.7617V6.33312C20.1074 5.93321 20.2663 5.5497 20.5491 5.26692C20.8318 4.98414 21.2154 4.82526 21.6153 4.82526H29.4999C29.8998 4.82526 30.2834 4.98414 30.5661 5.26692C30.8489 5.5497 31.0078 5.93321 31.0078 6.33312V10.7617C31.0078 10.8283 30.9946 10.8941 30.9688 10.9554C30.9431 11.0168 30.9054 11.0724 30.858 11.119C30.8105 11.1656 30.7543 11.2023 30.6925 11.2269C30.6307 11.2515 30.5646 11.2636 30.4981 11.2624ZM21.1071 10.2611H30.0036V6.33312C30.0032 6.20007 29.9501 6.0726 29.856 5.97852C29.762 5.88444 29.6345 5.83144 29.5014 5.83104H21.6017C21.4687 5.83144 21.3412 5.88444 21.2471 5.97852C21.153 6.0726 21.1 6.20007 21.0996 6.33312L21.1071 10.2611Z" fill="#747268"/>
<path d="M36.4994 19.9973H0.500601C0.368092 19.9973 0.240989 19.9447 0.147149 19.8511C0.0533094 19.7576 0.000399125 19.6307 0 19.4982V16.2879C0 16.1551 0.052737 16.0278 0.14662 15.9339C0.240503 15.84 0.367831 15.7873 0.500601 15.7873H36.4994C36.6322 15.7873 36.7595 15.84 36.8534 15.9339C36.9473 16.0278 37 16.1551 37 16.2879V19.4982C36.9996 19.6307 36.9467 19.7576 36.8529 19.8511C36.759 19.9447 36.6319 19.9973 36.4994 19.9973ZM1.00575 18.9975H35.9988V16.787H1.00121L1.00575 18.9975Z" fill="#747268"/>
</svg>
