<svg width="30" height="107" viewBox="0 0 30 107" fill="none" xmlns="http://www.w3.org/2000/svg">
<circle cx="15" cy="91.7187" r="15" fill="#1B1B1B"/>
<path d="M17.3177 1.21835C16.8167 1.41863 16.2714 1.56277 15.7097 1.6189C16.2929 1.29791 16.7295 0.790793 16.9378 0.192696C16.3906 0.494308 15.7912 0.705803 15.1661 0.8178C14.9048 0.558999 14.5889 0.352826 14.2378 0.212128C13.8868 0.0714306 13.5083 -0.0007765 13.1258 6.29717e-06C11.5784 6.29717e-06 10.334 1.16221 10.334 2.58842C10.334 2.7887 10.3602 2.98898 10.4027 3.18166C8.08575 3.06939 6.01929 2.04373 4.64546 0.473386C4.39514 0.869562 4.26396 1.32065 4.26557 1.77973C4.26557 2.67794 4.75845 3.46994 5.51004 3.93573C5.06711 3.91957 4.63456 3.80677 4.24756 3.60649V3.63835C4.24756 4.89615 5.20711 5.9385 6.48596 6.17822C6.24584 6.23601 5.99883 6.26558 5.75074 6.26622C5.56899 6.26622 5.39705 6.24953 5.22348 6.22677C5.57717 7.25243 6.60713 7.99739 7.83358 8.02167C6.87404 8.71808 5.67214 9.12774 4.36709 9.12774C4.13294 9.12774 3.91679 9.12015 3.69246 9.09588C4.93038 9.83174 6.39917 10.2566 7.98095 10.2566C13.116 10.2566 15.9259 6.31477 15.9259 2.89339C15.9259 2.78111 15.9259 2.66884 15.9177 2.55656C16.4613 2.18787 16.9378 1.73118 17.3177 1.21835Z" fill="white"/>
</svg>
