<svg width="25" height="25" viewBox="0 0 25 25" fill="none" xmlns="http://www.w3.org/2000/svg">
<path d="M12.4883 12.5029C13.6759 12.5058 14.8376 12.1561 15.8263 11.4981C16.8149 10.8401 17.586 9.90349 18.0418 8.80685C18.4976 7.71021 18.6176 6.50295 18.3867 5.33804C18.1557 4.17312 17.5841 3.10299 16.7443 2.26323C15.9046 1.42348 14.8345 0.8519 13.6695 0.620922C12.5046 0.389944 11.2974 0.509963 10.2007 0.965771C9.10409 1.42158 8.16744 2.19266 7.50945 3.18131C6.85146 4.16996 6.50176 5.33168 6.50466 6.51927C6.5112 8.10422 7.14372 9.62238 8.26446 10.7431C9.3852 11.8639 10.9034 12.4964 12.4883 12.5029V12.5029ZM12.4883 15.4991C8.5192 15.4991 0.506376 17.521 0.506376 21.4974V24.4936H24.4717V21.4901C24.4717 17.521 16.453 15.4991 12.4883 15.4991Z" stroke="#747268"/>
</svg>
