<svg width="9" height="10" viewBox="0 0 9 10" fill="none" xmlns="http://www.w3.org/2000/svg">
<path d="M8.5 4.18182C8.5 7.04545 4.5 9.5 4.5 9.5C4.5 9.5 0.5 7.04545 0.5 4.18182C0.5 3.20534 0.921427 2.26885 1.67157 1.57838C2.42172 0.887905 3.43913 0.5 4.5 0.5C5.56087 0.5 6.57828 0.887905 7.32843 1.57838C8.07857 2.26885 8.5 3.20534 8.5 4.18182Z" stroke="#091E3D" stroke-linecap="round" stroke-linejoin="round"/>
<path d="M4.50002 5.4091C5.2364 5.4091 5.83335 4.85964 5.83335 4.18183C5.83335 3.50403 5.2364 2.95456 4.50002 2.95456C3.76364 2.95456 3.16669 3.50403 3.16669 4.18183C3.16669 4.85964 3.76364 5.4091 4.50002 5.4091Z" stroke="#091E3D" stroke-linecap="round" stroke-linejoin="round"/>
</svg>
